<?xml version="1.0" encoding="UTF-8" standalone="no"?>
<svg width="250px" height="40px" viewBox="0 0 250 40" version="1.1" xmlns="http://www.w3.org/2000/svg" xmlns:xlink="http://www.w3.org/1999/xlink" xmlns:sketch="http://www.bohemiancoding.com/sketch/ns">
    <!-- Generator: Sketch 3.3.3 (12072) - http://www.bohemiancoding.com/sketch -->
    <title>tbr-logo</title>
    <desc>Created with Sketch.</desc>
    <defs></defs>
    <g id="Page-1" stroke="none" stroke-width="1" fill="none" fill-rule="evenodd" sketch:type="MSPage">
        <g id="Desktop-HD-Copy" sketch:type="MSArtboardGroup" transform="translate(-596.000000, -1290.000000)">
            <g id="tbr-logo" sketch:type="MSLayerGroup" transform="translate(596.000000, 1289.000000)">
                <path d="M218.878845,22.2085676 C219.038077,22.2085676 219.69405,22.4093708 219.69405,23.443909 C219.69405,25.4546185 218.041951,26.935743 216.963298,27.5820616 C217.16009,24.0409639 218.570961,22.2085676 218.878845,22.2085676 L218.878845,22.2085676 L218.878845,22.2085676 Z M202.986314,13.1290495 C203.647577,13.173494 204.176587,13.6645248 204.176587,15.3153949 C204.176587,18.6631861 202.257866,23.8696118 199.643497,27.8669344 C199.554623,27.2725569 199.503309,26.632664 199.503838,25.9354752 C199.506483,18.6621151 202.57633,13.1290495 202.986314,13.1290495 L202.986314,13.1290495 L202.986314,13.1290495 Z M144.506855,22.0570281 C143.929704,21.9670683 142.040608,21.6206158 140.453048,21.5884873 C140.709618,18.3038822 141.151342,14.546988 141.895659,10.5646586 C142.260147,10.5277108 142.630984,10.5025435 143.016103,10.5025435 C146.277453,10.5025435 148.476549,12.6722892 148.51358,15.7373494 C148.560133,19.6045515 144.506855,22.0570281 144.506855,22.0570281 L144.506855,22.0570281 L144.506855,22.0570281 Z M134.11709,31.3004016 C132.719444,31.5360107 131.321799,29.2725569 131.321799,25.3111111 C131.321799,21.5499331 132.639564,16.8340027 135.549121,13.7475234 C133.893318,20.8093708 136.323063,30.9282463 134.11709,31.3004016 L134.11709,31.3004016 L134.11709,31.3004016 Z M116.337578,22.6599732 C116.497339,22.6599732 117.153312,22.8607764 117.153312,23.8953146 C117.153312,25.9231593 115.471588,27.4144578 114.393994,28.0516734 C114.480751,24.5004016 116.029694,22.6599732 116.337578,22.6599732 L116.337578,22.6599732 L116.337578,22.6599732 Z M68.544659,22.3563588 C68.703891,22.3563588 69.360393,22.557162 69.360393,23.5917001 C69.360393,25.6195448 67.678669,27.1108434 66.601075,27.7480589 C66.687833,24.1973226 68.236775,22.3563588 68.544659,22.3563588 L68.544659,22.3563588 L68.544659,22.3563588 Z M246.833344,24.6556894 C246.833344,26.546988 245.332541,33.4503347 241.61254,33.4503347 C239.411327,33.4503347 238.328972,31.368407 238.835235,28.3060241 C239.614996,23.594913 242.78853,21.2950469 242.78853,18.9855422 C242.78853,18.0987952 241.709877,16.6037483 240.722215,16.9876841 C238.826771,17.7250335 234.37409,19.3314592 232.787058,17.529585 C232.94682,15.939759 232.346922,12.0463186 231.586205,11.5558233 C231.586205,11.5558233 226.637312,11.0760375 226.637312,16.5427041 C226.637312,17.9772423 227.172142,19.8524766 228.414258,21.2248996 C227.690572,27.2971888 224.619137,33.2800535 221.051491,33.5659973 C218.946558,33.734672 217.724015,32.4254351 217.217223,30.5935743 C219.750125,29.9954485 224.044632,27.4647925 223.89598,22.3424364 C223.810809,19.4187416 222.150775,16.9876841 218.592121,16.9876841 C215.4334,16.9876841 210.863279,21.453012 210.634746,30.1105756 C209.651845,31.5799197 208.081742,33.206158 205.807526,33.5659973 C204.553242,33.7646586 203.168822,33.4519411 202.017166,32.523427 C208.154216,24.2680054 211.930293,11.7475234 208.981589,5.40910308 C208.416606,4.19464525 206.550257,3.35127175 204.529437,3.84712182 C201.61988,4.56144578 195.756328,12.9057564 195.756328,25.4449799 C195.756328,26.5534137 195.845202,29.0738956 196.412301,31.7416332 C195.133154,32.8725569 193.811686,33.5659973 192.543647,33.5659973 C190.163101,33.5659973 189.181257,31.1552878 189.087622,27.9435074 C188.983936,24.4104418 189.492315,20.913253 190.280012,17.7410977 C191.16293,17.7453815 192.083408,17.7250335 193.050969,17.6720214 C196.528683,17.4813922 197.0487,14.8971888 196.854025,14.0682731 C196.854025,14.0682731 196.773086,14.2069612 194.858068,14.3119143 C193.928597,14.3627845 192.741497,14.2380187 191.375592,14.0029451 C192.802863,9.768407 194.543836,6.51164659 195.51457,5.18580991 C195.51457,5.18580991 194.503102,3.55528782 192.076002,3.33413655 C189.872145,3.13333333 188.769687,3.78018742 188.769687,3.78018742 C188.162912,4.28406961 186.401836,7.5456493 184.94071,12.5550201 C178.677226,10.9807229 171.256797,8.9678715 165.913262,9.2607764 C159.640785,9.6040161 158.794898,13.6056225 158.91657,15.8776439 C158.99169,17.28166 159.973004,18.3001339 159.973004,18.3001339 C160.141758,18.1566265 162.761947,16.6594378 167.231556,16.1598394 C173.971678,15.4058902 178.456629,16.5668005 183.794344,17.2698795 C183.175931,20.4082999 182.756954,23.9547523 182.756954,27.7651941 C182.756954,29.0958501 182.847944,30.426506 183.03733,31.7009371 C182.223183,32.7124498 181.183677,33.5659973 179.977534,33.5659973 C177.00185,33.5659973 176.498761,27.1172691 178.413779,21.1975904 C178.753403,20.1480589 175.900979,18.6208835 172.396285,20.6621151 C171.592189,24.0372155 169.673997,33.1044177 167.202461,33.3073628 C165.978859,33.4080321 165.28903,32.1025435 165.284798,29.9606426 C165.275276,25.2307898 167.997563,19.8091031 168.030362,19.6752343 C167.236846,18.5036145 162.608005,19.2779116 161.625104,20.7772423 C160.604642,22.3344043 158.800717,25.9697456 158.491246,30.5078983 C157.469727,24.0757697 149.864673,23.1884873 149.864673,23.1884873 C151.63527,22.4811245 155.138907,19.2698795 155.316125,15.5488621 C155.54889,10.643909 151.215765,6.06934404 143.528715,6.06934404 C133.977431,6.06934404 126.686609,13.3014726 126.10364,23.8016064 C126.010534,25.4776439 126.152309,27.1943775 126.477121,28.8597055 C125.475704,30.2080321 122.561915,33.6597055 118.960941,33.6597055 C116.743858,33.6597055 115.299131,32.2631861 114.704523,30.5153949 C117.607732,30.1036145 121.512887,27.7341365 121.512887,23.0562249 C121.512887,19.3759036 118.898518,17.8947791 116.051383,17.8947791 C112.811195,17.8947791 108.07179,22.124498 108.07179,31.227577 C108.07179,31.8449799 108.123104,32.4977242 108.228377,33.161178 C107.620015,33.6281124 106.750322,34.145917 105.879042,34.145917 C102.268017,34.145917 103.972488,24.6792503 104.159758,23.0562249 C104.490389,20.1925033 102.991703,18.3852744 100.72119,18.3852744 C96.934004,18.3852744 93.826068,22.1780455 92.892894,24.729585 C93.047894,22.330656 92.961136,18.7017403 89.865896,18.653012 C84.766764,18.5726908 82.207941,25.1751004 82.207941,25.1751004 C82.373521,23.4663989 82.749118,20.7477912 83.583897,18.2958501 C83.311986,17.1354752 78.947649,17.1354752 77.794407,19.7475234 C77.794407,19.7475234 76.16241,24.9153949 76.341744,30.8891566 C75.170515,32.1914324 73.429013,33.508166 71.167493,33.508166 C69.054096,33.508166 67.642696,32.157162 66.999949,30.480589 C69.366212,30.2926372 73.625804,27.5740295 73.625804,22.4902276 C73.625804,18.9742972 71.255838,17.1354752 68.257936,17.1354752 C65.017747,17.1354752 60.278871,21.8208835 60.278871,30.9239625 C60.278871,31.3164659 60.296858,31.7228916 60.333359,32.1373494 C59.469485,32.8243641 58.281857,33.5119143 56.991071,33.5119143 C51.46926,33.5119143 58.842608,17.5911647 50.730762,17.5911647 C45.617347,17.5911647 42.437994,23.9269076 42.413131,24.1212851 C42.717841,21.5220884 43.480674,17.1825971 45.362364,12.6717537 C51.648595,13.0937082 58.058614,13.270415 64.070818,12.6053548 C72.177903,11.7084337 73.59618,7.8096385 73.59618,5.13226238 C73.59618,3.34323963 72.594763,1.60669344 71.996981,1 C71.996981,1 68.055854,6.48005355 54.879791,7.107095 C52.78967,7.206158 50.60856,7.1649264 48.370846,7.031593 C49.2453,5.73038822 50.235608,4.46934404 51.376684,3.29504685 C50.347758,1.71432396 47.349856,0.7772423 45.280367,1.50495315 C43.982705,2.40829987 42.668643,4.0896921 41.475724,6.38580991 C30.670157,5.08621151 19.293788,2.70174029 10.510627,3.67362784 C1.307962,4.69210174 -0.32139,9.3159304 0.04733,12.7317269 C0.363678,15.65917 2.210983,17.1606426 2.210983,17.1606426 C2.210983,17.1606426 3.776324,12.7681392 16.793684,11.3277108 C19.763549,10.998929 23.213755,11.0342704 26.973432,11.2404284 C24.925104,19.3507363 23.954899,31.2746988 25.814899,38.5641232 C26.699934,40.610174 28.247818,40.8843373 29.052972,40.8843373 C30.724645,40.8843373 31.995328,39.9028112 31.995328,39.9028112 C29.663979,30.2289157 32.091608,18.2053548 34.35207,11.7812584 C35.925347,11.9140562 37.528777,12.0543507 39.153897,12.1919679 C37.743027,16.7799197 36.813026,22.4655957 36.813026,28.7247657 C36.813026,34.5480589 37.937173,38.5539491 37.937173,38.5539491 C38.00859,38.7178046 38.664563,40.5801874 41.144035,40.5801874 C42.345946,40.5801874 43.580128,40.026506 43.580128,40.026506 C42.290929,33.8353414 45.074053,25.5788487 47.917484,25.5788487 C52.163851,25.5788487 44.956084,40.6257028 54.412145,40.6257028 C57.390474,40.6257028 60.050868,37.9317269 61.404076,36.2776439 C62.552558,38.7317269 64.682883,40.6963855 68.257936,40.6963855 C72.304336,40.6963855 75.239815,38.0452477 76.970737,35.8947791 C77.222546,36.9646586 77.55741,38.0232932 77.998605,39.0455154 C78.373144,39.647925 79.969169,40.6963855 82.283589,40.6963855 C83.429955,40.6963855 84.025092,40.4286479 84.151525,40.2171352 C83.268078,38.438822 82.739596,35.0610442 83.146934,32.7526104 C83.807668,29.0053548 85.494154,25.9991968 87.307601,25.9991968 C88.800469,25.9991968 87.508096,31.3255689 87.508096,34.3376171 C87.508096,38.1528782 88.773489,40.6963855 92.145931,40.6963855 C93.160044,40.6963855 93.953559,40.0939759 93.953559,40.0939759 C93.060061,35.497992 94.702109,25.9740295 97.330762,25.9740295 C99.093954,25.9740295 97.921667,30.8795181 97.921667,34.8730924 C97.921667,38.5769746 99.349995,40.8971888 102.986942,40.8971888 C106.13667,40.8971888 108.574879,38.2963855 109.558838,37.0471218 C110.835341,39.2789826 113.005341,41 116.351332,41 C122.209065,41 126.088827,36.3028112 127.841439,33.3212851 C129.79243,37.8904953 133.10668,41.152075 136.493405,40.4018742 C139.474908,39.7416332 140.17373,36.9368139 140.17373,33.6580991 C140.17373,33.1643909 139.993867,29.6457831 140.266307,24.4495315 C140.509652,25.0621151 140.886307,25.627577 141.431717,25.9713521 C142.96955,26.3954485 144.599961,25.8294511 145.857947,25.1692102 C145.857947,25.1692102 150.051413,26.3012048 150.051413,29.5552878 C150.051413,31.3946452 148.555372,32.7643909 146.696429,32.9036145 C144.180984,33.0921017 142.596598,31.8658635 142.596598,31.8658635 C141.80467,32.0077644 140.593236,33.6580991 140.593236,34.9314592 C140.593236,37.6195448 143.854585,41.2982597 150.051413,40.8736278 C154.974384,40.5362784 157.974932,37.4492637 158.511348,33.3555556 C158.792253,36.4864793 160.045478,40.3001339 164.039507,40.5384203 C168.92439,40.8297189 170.984356,34.7488621 171.742957,33.3062918 C171.969374,35.6564926 172.986661,40.5384203 177.53086,40.5384203 C180.643558,40.5384203 182.959565,38.2963855 184.367262,36.3933066 C185.530556,38.8768407 187.368867,40.5485944 190.030848,40.5485944 C192.822436,40.5485944 195.630423,39.096921 198.223633,36.7568942 C199.482148,38.924498 201.373361,40.5186078 204.220495,40.5186078 C207.937851,40.5186078 210.315224,37.9145917 211.585907,35.7871486 C212.693655,38.3975904 214.851489,40.5485944 218.592121,40.5485944 C226.717193,40.5485944 231.070949,29.9718876 232.167058,23.0546185 C233.078543,23.108166 234.262469,22.9876841 235.432111,22.6337349 C235.873305,23.5258367 231.75972,28.762249 231.825846,33.5103079 C231.870283,36.676573 233.397007,40.3547523 238.771753,40.5384203 C244.436926,40.7322624 250.001058,35.3378849 250,26.5159304 C250,25.2661312 247.775511,24.1593039 246.833344,24.6556894 L246.833344,24.6556894 L246.833344,24.6556894 Z" id="logo" fill="#FFFFFF" sketch:type="MSShapeGroup"></path>
                <text id="BETA" fill="#FCC64B" sketch:type="MSTextLayer" font-family="Open Sans" font-size="7.34313374" font-weight="bold">
                    <tspan x="214" y="8" fill="#000000">BETA</tspan>
                </text>
            </g>
        </g>
    </g>
</svg>